<?xml version="1.0" encoding="utf-8"?>
<!-- Generator: Adobe Illustrator 25.2.0, SVG Export Plug-In . SVG Version: 6.00 Build 0)  -->
<svg version="1.1" id="Layer_1" xmlns="http://www.w3.org/2000/svg" xmlns:xlink="http://www.w3.org/1999/xlink" x="0px" y="0px"
	 viewBox="0 0 612 792" style="enable-background:new 0 0 612 792;" xml:space="preserve">
<style type="text/css">
	.st0{fill:#28AAC7;}
</style>
<g>
	<path class="st0" d="M447.66,431.33L447.66,431.33c26.19,10.72,31.01,45.39,9.13,63.33c-37.61,30.84-86.46,48.49-139.52,45.87
		c-104.63-5.17-189.26-90.71-193.39-195.39c-4.6-116.41,88.4-212.17,203.74-212.17c59.8,0,113.59,25.74,150.88,66.72
		c16.74,18.4,11.28,47.7-11.11,58.56l0,0c-14.82,7.19-32.58,3.73-43.64-8.47c-24.38-26.89-59.89-43.53-99.26-42.6
		c-66.65,1.57-122.2,54.86-126.34,121.4c-4.69,75.4,55.08,138.03,129.47,138.03c31.25,0,59.94-11.05,82.32-29.49
		C420.52,428.42,434.98,426.14,447.66,431.33z"/>
	<circle class="st0" cx="327.63" cy="336.88" r="82.54"/>
	<path class="st0" d="M245.09,503.34l64.38,146.82c5.03,11.48,21.17,11.89,26.78,0.69l73.92-147.51H245.09z"/>
</g>
</svg>
